<svg xmlns="http://www.w3.org/2000/svg" width="140" height="32" viewBox="0 0 140 32" role="img" aria-label="github: @Notookk">
  <title>github: @Notookk</title>
  <defs>
    <style>
      @import url('https://fonts.googleapis.com/css2?family=Montserrat:wght@700&amp;display=swap');
      .badge-text { font-family: 'Montserrat', sans-serif; font-weight: 700; text-transform: uppercase; letter-spacing: 1px; font-size: 11px; }
    </style>
    <linearGradient id="scifiDark" x1="0%" y1="0%" x2="100%" y2="100%"><stop offset="0%" style="stop-color:#1e1b4b;stop-opacity:1" /><stop offset="100%" style="stop-color:#020617;stop-opacity:1" /></linearGradient>
    <linearGradient id="scifiLight" x1="0%" y1="0%" x2="100%" y2="100%"><stop offset="0%" style="stop-color:#312e81;stop-opacity:1" /><stop offset="100%" style="stop-color:#1e1b4b;stop-opacity:1" /></linearGradient>
    <linearGradient id="cyberAccent" x1="0%" y1="0%" x2="100%" y2="0%"><stop offset="0%" style="stop-color:#06b6d4;stop-opacity:1" /><stop offset="50%" style="stop-color:#8b5cf6;stop-opacity:1" /><stop offset="100%" style="stop-color:#d946ef;stop-opacity:1" /></linearGradient>
    <pattern id="hexGrid" width="20" height="17.3" patternUnits="userSpaceOnUse" patternTransform="scale(0.4)"><path d="M10 0 L20 5.75 L20 17.3 L10 23.05 L0 17.3 L0 5.75 Z" fill="none" stroke="#06b6d4" stroke-opacity="0.3" stroke-width="1"/></pattern>
    <filter id="cyberGlow" x="-50%" y="-50%" width="200%" height="200%"><feGaussianBlur in="SourceGraphic" stdDeviation="2" result="blur"/><feColorMatrix in="blur" type="matrix" values="0 0 0 0 0   0 1 1 0 0   0 1 1 0 0  0 0 0 1 0" result="cyanBlur"/><feMerge><feMergeNode in="cyanBlur" opacity="0.7"/><feMergeNode in="SourceGraphic"/></feMerge></filter>
    <clipPath id="pillClipGit"><rect width="140" height="32" rx="16"/></clipPath>
  </defs>

  <g clip-path="url(#pillClipGit)" filter="url(#cyberGlow)">
    <rect width="140" height="32" fill="url(#scifiDark)"/>
    <rect width="140" height="32" fill="url(#hexGrid)" opacity="0.3"/>
    <rect x="37" y="0" width="103" height="32" fill="url(#scifiLight)" opacity="0.5"/>
    <path d="M 36 0 L 36 32" stroke="url(#cyberAccent)" stroke-width="1.5"/>
  </g>
  
  <rect width="140" height="32" rx="16" fill="none" stroke="url(#cyberAccent)" stroke-width="1.5" filter="url(#cyberGlow)"/>

  <g transform="translate(8, 6)" filter="url(#cyberGlow)">
    <path d="M10 2 C 5.5 2, 2 5.5, 2 10 C 2 13.5, 4.3 16.5, 7.5 17.6 C 7.9 17.7, 8 17.4, 8 17.2 C 8 17, 8 16.4, 8 15.7 C 5.8 16.2, 5.3 15.3, 5.1 14.9 C 5 14.7, 4.6 14, 4.3 13.8 C 4 13.7, 3.6 13.3, 4.2 13.3 C 4.8 13.3, 5.3 13.9, 5.4 14.1 C 6.1 15.3, 7.2 15, 7.7 14.8 C 7.7 14.3, 7.9 13.9, 8.1 13.7 C 6.3 13.5, 4.4 12.8, 4.4 9.7 C 4.4 8.8, 4.7 8.1, 5.2 7.5 C 5.1 7.3, 4.8 6.5, 5.3 5.4 C 5.3 5.4, 6 5.2, 7.5 6.2 C 8.2 6, 8.9 5.9, 9.6 5.9 C 10.3 5.9, 11 6, 11.7 6.2 C 13.2 5.2, 13.9 5.4, 13.9 5.4 C 14.4 6.5, 14.1 7.3, 14 7.5 C 14.5 8.1, 14.8 8.8, 14.8 9.7 C 14.8 12.8, 12.9 13.5, 11.1 13.7 C 11.4 14, 11.6 14.5, 11.6 15.3 C 11.6 16.4, 11.6 17.3, 11.6 17.6 C 11.6 17.8, 11.7 18.1, 12.1 18 C 15.3 16.9, 17.6 13.9, 17.6 10.4 C 17.6 5.9, 14.1 2.4, 9.6 2.4 Z" fill="none" stroke="url(#cyberAccent)" stroke-width="1.5" transform="scale(0.9) translate(1,1)"/>
  </g>

  <text x="88" y="20" text-anchor="middle" class="badge-text" fill="#ffffff" filter="url(#cyberGlow)">@NOTOOKK</text>
</svg>